<svg width="1054" height="174" viewBox="0 0 1054 174" fill="none" xmlns="http://www.w3.org/2000/svg">
<path d="M276.66 16.06H262.01L276.66 1.41003V16.06ZM293.42 1.41003H278.77V16.06H293.42V1.41003ZM310.18 1.41003H295.53V16.06H310.18V1.41003ZM326.94 1.41003H312.29V16.06H326.94V1.41003ZM343.7 1.41003H329.05V16.06H343.7V1.41003ZM360.46 1.41003H345.81V16.06H360.46V1.41003ZM377.22 1.41003H362.57V16.06H377.22V1.41003ZM276.65 18.73H262V33.38H276.65V18.73ZM293.41 18.73H278.76V33.38H293.41V18.73ZM276.65 36.05H262V50.7H276.65V36.05ZM293.41 36.05H278.76V50.7H293.41V36.05ZM276.65 53.37H262V68.02H276.65V53.37ZM293.41 53.37H278.76V68.02H293.41V53.37ZM276.65 70.69H262V85.34H276.65V70.69ZM293.41 70.69H278.76V85.34H293.41V70.69ZM310.17 70.69H295.52V85.34H310.17V70.69ZM326.93 70.69H312.28V85.34H326.93V70.69ZM343.69 70.69H329.04V85.34H343.69V70.69ZM276.64 88.01H261.99V102.66H276.64V88.01ZM293.4 88.01H278.75V102.66H293.4V88.01ZM276.64 105.33H261.99V119.98H276.64V105.33ZM293.4 105.33H278.75V119.98H293.4V105.33ZM276.64 122.65H261.99V137.3H276.64V122.65ZM293.4 122.65H278.75V137.3H293.4V122.65ZM276.64 139.97H261.99V154.62H276.64V139.97ZM293.4 139.97H278.75V154.62H293.4V139.97ZM276.64 157.29H261.99L276.64 171.94V157.29ZM293.4 157.29H278.75V171.94H293.4V157.29ZM310.16 157.29H295.51V171.94H310.16V157.29ZM326.92 157.29H312.27V171.94H326.92V157.29ZM343.68 157.29H329.03V171.94H343.68V157.29ZM360.44 157.29H345.79V171.94H360.44V157.29ZM377.2 157.29H362.55V171.94H377.2V157.29Z" fill="#D9D9D9"/>
<path d="M145.66 16.06H131.01V1.41003H145.66V16.06ZM162.42 1.41003H147.77V16.06H162.42V1.41003ZM229.47 1.41003H214.82V16.06H229.47V1.41003ZM246.23 1.41003H231.58V16.06H246.23V1.41003ZM145.66 18.73H131.01V33.38H145.66V18.73ZM162.42 18.73H147.77V33.38H162.42V18.73ZM229.47 18.73H214.82V33.38H229.47V18.73ZM246.23 18.73H231.58V33.38H246.23V18.73ZM145.66 36.05H131.01V50.7H145.66V36.05ZM162.42 36.05H147.77V50.7H162.42V36.05ZM229.47 36.05H214.82V50.7H229.47V36.05ZM246.23 36.05H231.58V50.7H246.23V36.05ZM145.66 53.37H131.01V68.02H145.66V53.37ZM162.42 53.37H147.77V68.02H162.42V53.37ZM229.47 53.37H214.82V68.02H229.47V53.37ZM246.23 53.37H231.58V68.02H246.23V53.37ZM145.66 70.69H131.01V85.34H145.66V70.69ZM162.42 70.69H147.77V85.34H162.42V70.69ZM179.18 70.69H164.53V85.34H179.18V70.69ZM195.94 70.69H181.29V85.34H195.94V70.69ZM212.7 70.69H198.05V85.34H212.7V70.69ZM229.46 70.69H214.81V85.34H229.46V70.69ZM246.22 70.69H231.57V85.34H246.22V70.69ZM145.65 88.01H131V102.66H145.65V88.01ZM162.41 88.01H147.76V102.66H162.41V88.01ZM229.46 88.01H214.81V102.66H229.46V88.01ZM246.22 88.01H231.57V102.66H246.22V88.01ZM145.65 105.33H131V119.98H145.65V105.33ZM162.41 105.33H147.76V119.98H162.41V105.33ZM229.46 105.33H214.81V119.98H229.46V105.33ZM246.22 105.33H231.57V119.98H246.22V105.33ZM145.65 122.65H131V137.3H145.65V122.65ZM162.41 122.65H147.76V137.3H162.41V122.65ZM229.46 122.65H214.81V137.3H229.46V122.65ZM246.22 122.65H231.57V137.3H246.22V122.65ZM145.65 139.97H131V154.62H145.65V139.97ZM162.41 139.97H147.76V154.62H162.41V139.97ZM229.46 139.97H214.81V154.62H229.46V139.97ZM246.22 139.97H231.57V154.62H246.22V139.97ZM145.65 157.29H131V171.94H145.65V157.29ZM162.41 157.29H147.76V171.94H162.41V157.29ZM229.46 157.29H214.81V171.94H229.46V157.29ZM246.22 157.29H231.57V171.94H246.22V157.29Z" fill="#D9D9D9"/>
<path d="M407.67 16.06H393.02V1.41003H407.67V16.06ZM424.43 1.41003H409.78V16.06H424.43V1.41003ZM491.48 1.41003H476.83V16.06H491.48V1.41003ZM508.24 1.41003H493.59V16.06H508.24V1.41003ZM407.67 18.73H393.02V33.38H407.67V18.73ZM424.43 18.73H409.78V33.38H424.43V18.73ZM491.48 18.73H476.83V33.38H491.48V18.73ZM508.24 18.73H493.59V33.38H508.24V18.73ZM407.67 36.05H393.02V50.7H407.67V36.05ZM424.43 36.05H409.78V50.7H424.43V36.05ZM491.48 36.05H476.83V50.7H491.48V36.05ZM508.24 36.05H493.59V50.7H508.24V36.05ZM407.67 53.37H393.02V68.02H407.67V53.37ZM424.43 53.37H409.78V68.02H424.43V53.37ZM441.19 53.37H426.54V68.02H441.19V53.37ZM491.48 53.37H476.83V68.02H491.48V53.37ZM508.24 53.37H493.59V68.02H508.24V53.37ZM407.67 70.69H393.02V85.34H407.67V70.69ZM424.43 70.69H409.78V85.34H424.43V70.69ZM441.19 70.69H426.54V85.34H441.19V70.69ZM457.95 70.69H443.3V85.34H457.95V70.69ZM491.47 70.69H476.82V85.34H491.47V70.69ZM508.23 70.69H493.58V85.34H508.23V70.69ZM407.66 88.01H393.01V102.66H407.66V88.01ZM424.42 88.01H409.77V102.66H424.42V88.01ZM457.94 88.01H443.29V102.66H457.94V88.01ZM474.7 88.01H460.05V102.66H474.7V88.01ZM491.46 88.01H476.81V102.66H491.46V88.01ZM508.22 88.01H493.57V102.66H508.22V88.01ZM407.65 105.33H393V119.98H407.65V105.33ZM424.41 105.33H409.76V119.98H424.41V105.33ZM474.7 105.33H460.05V119.98H474.7V105.33ZM491.46 105.33H476.81V119.98H491.46V105.33ZM508.22 105.33H493.57V119.98H508.22V105.33ZM407.65 122.65H393V137.3H407.65V122.65ZM424.41 122.65H409.76V137.3H424.41V122.65ZM491.46 122.65H476.81V137.3H491.46V122.65ZM508.22 122.65H493.57V137.3H508.22V122.65ZM407.65 139.97H393V154.62H407.65V139.97ZM424.41 139.97H409.76V154.62H424.41V139.97ZM491.46 139.97H476.81V154.62H491.46V139.97ZM508.22 139.97H493.57V154.62H508.22V139.97ZM407.65 157.29H393V171.94H407.65V157.29ZM424.41 157.29H409.76V171.94H424.41V157.29ZM491.46 157.29H476.81V171.94H491.46V157.29ZM508.22 157.29H493.57V171.94H508.22V157.29Z" fill="#D9D9D9"/>
<path d="M538.67 16.06H524.02L538.67 1.41003V16.06ZM555.43 1.41003H540.78V16.06H555.43V1.41003ZM572.19 1.41003H557.54V16.06H572.19V1.41003ZM588.95 1.41003H574.3V16.06H588.95V1.41003ZM605.71 1.41003H591.06V16.06H605.71V1.41003ZM622.47 1.41003H607.82V16.06H622.47V1.41003ZM624.58 1.41003V16.06H639.23L624.58 1.41003ZM538.66 18.73H524.01V33.38H538.66V18.73ZM555.42 18.73H540.77V33.38H555.42V18.73ZM622.47 18.73H607.82V33.38H622.47V18.73ZM639.23 18.73H624.58V33.38H639.23V18.73ZM538.66 36.05H524.01V50.7H538.66V36.05ZM555.42 36.05H540.77V50.7H555.42V36.05ZM622.47 36.05H607.82V50.7H622.47V36.05ZM639.23 36.05H624.58V50.7H639.23V36.05ZM538.66 53.37H524.01V68.02H538.66V53.37ZM555.42 53.37H540.77V68.02H555.42V53.37ZM622.47 53.37H607.82V68.02H622.47V53.37ZM639.23 53.37H624.58V68.02H639.23V53.37ZM538.66 70.69H524.01V85.34H538.66V70.69ZM555.42 70.69H540.77V85.34H555.42V70.69ZM622.47 70.69H607.82V85.34H622.47V70.69ZM639.23 70.69H624.58V85.34H639.23V70.69ZM538.66 88.01H524.01V102.66H538.66V88.01ZM555.42 88.01H540.77V102.66H555.42V88.01ZM622.47 88.01H607.82V102.66H622.47V88.01ZM639.23 88.01H624.58V102.66H639.23V88.01ZM538.66 105.33H524.01V119.98H538.66V105.33ZM555.42 105.33H540.77V119.98H555.42V105.33ZM622.47 105.33H607.82V119.98H622.47V105.33ZM639.23 105.33H624.58V119.98H639.23V105.33ZM538.66 122.65H524.01V137.3H538.66V122.65ZM555.42 122.65H540.77V137.3H555.42V122.65ZM622.47 122.65H607.82V137.3H622.47V122.65ZM639.23 122.65H624.58V137.3H639.23V122.65ZM538.66 139.97H524.01V154.62H538.66V139.97ZM555.42 139.97H540.77V154.62H555.42V139.97ZM622.47 139.97H607.82V154.62H622.47V139.97ZM639.23 139.97H624.58V154.62H639.23V139.97ZM538.66 157.29H524.01L538.66 171.94V157.29ZM555.42 157.29H540.77V171.94H555.42V157.29ZM572.18 157.29H557.53V171.94H572.18V157.29ZM588.94 157.29H574.29V171.94H588.94V157.29ZM605.7 157.29H591.05V171.94H605.7V157.29ZM622.46 157.29H607.81V171.94H622.46V157.29ZM639.22 157.29H624.57V171.94L639.22 157.29Z" fill="#D9D9D9"/>
<path d="M14.65 16.06H0V1.41003H14.65V16.06ZM31.41 1.41003H16.76V16.06H31.41V1.41003ZM48.17 1.41003H33.52V16.06H48.17V1.41003ZM64.93 1.41003H50.28V16.06H64.93V1.41003ZM81.69 1.41003H67.04V16.06H81.69V1.41003ZM98.45 1.41003H83.8V16.06H98.45V1.41003ZM100.56 1.41003V16.06H115.21L100.56 1.41003ZM14.65 18.73H0V33.38H14.65V18.73ZM31.41 18.73H16.76V33.38H31.41V18.73ZM98.46 18.73H83.81V33.38H98.46V18.73ZM115.22 18.73H100.57V33.38H115.22V18.73ZM14.65 36.04H0V50.69H14.65V36.04ZM31.41 36.04H16.76V50.69H31.41V36.04ZM98.46 36.04H83.81V50.69H98.46V36.04ZM115.22 36.04H100.57V50.69H115.22V36.04ZM14.65 53.36H0V68.01H14.65V53.36ZM31.41 53.36H16.76V68.01H31.41V53.36ZM98.46 53.36H83.81V68.01H98.46V53.36ZM115.22 53.36H100.57V68.01H115.22V53.36ZM14.65 70.68H0V85.33H14.65V70.68ZM31.41 70.68H16.76V85.33H31.41V70.68ZM98.46 70.68H83.81V85.33H98.46V70.68ZM115.22 70.68H100.57V85.33H115.22V70.68ZM14.65 87.99H0V102.64H14.65V87.99ZM31.41 87.99H16.76V102.64H31.41V87.99ZM48.17 87.99H33.52V102.64H48.17V87.99ZM64.93 87.99H50.28V102.64H64.93V87.99ZM81.69 87.99H67.04V102.64H81.69V87.99ZM98.45 87.99H83.8V102.64H98.45V87.99ZM115.21 87.99H100.56V102.64L115.21 87.99ZM14.65 105.31H0V119.96H14.65V105.31ZM31.41 105.31H16.76V119.96H31.41V105.31ZM14.65 122.63H0V137.28H14.65V122.63ZM31.41 122.63H16.76V137.28H31.41V122.63ZM14.65 139.95H0V154.6H14.65V139.95ZM31.41 139.95H16.76V154.6H31.41V139.95ZM14.65 157.27H0V171.92H14.65V157.27ZM31.41 157.27H16.76V171.92H31.41V157.27Z" fill="#D9D9D9"/>
<path d="M746.83 140.54H732.18V155.19H746.83V140.54Z" fill="#D9D9D9"/>
<path d="M730.04 140.54H715.39V155.19H730.04V140.54Z" fill="#D9D9D9"/>
<path d="M730.04 157.71H715.39V172.36H730.04V157.71Z" fill="#D9D9D9"/>
<path d="M713.25 157.71H698.6V172.36H713.25V157.71Z" fill="#D9D9D9"/>
<path d="M746.83 157.71H732.18V172.36H746.83V157.71Z" fill="#D9D9D9"/>
<path d="M763.43 140.54H748.78V155.19H763.43V140.54Z" fill="#D9D9D9"/>
<path d="M763.43 157.71H748.78V172.36H763.43V157.71Z" fill="#D9D9D9"/>
<path d="M713.25 140.54H698.6V155.19H713.25V140.54Z" fill="#D9D9D9"/>
<path d="M696.45 157.71H681.8V172.36H696.45V157.71Z" fill="#D9D9D9"/>
<path d="M696.45 140.54H681.8V155.19H696.45V140.54Z" fill="#D9D9D9"/>
<path d="M951.19 14.88H936.31V0H951.19V14.88ZM968.21 0H953.33V14.88H968.21V0ZM951.19 17.58H936.31V32.46H951.19V17.58ZM968.21 17.58H953.33V32.46H968.21V17.58ZM951.19 35.16H936.31V50.04H951.19V35.16ZM968.21 35.16H953.33V50.04H968.21V35.16ZM951.19 52.74H936.31V67.62H951.19V52.74ZM968.21 52.74H953.33V67.62H968.21V52.74ZM951.19 70.32H936.31V85.2H951.19V70.32ZM968.21 70.32H953.33V85.2H968.21V70.32ZM951.19 87.9H936.31V102.78H951.19V87.9ZM968.21 87.9H953.33V102.78H968.21V87.9ZM951.19 105.48H936.31V120.36H951.19V105.48ZM968.21 105.48H953.33V120.36H968.21V105.48ZM951.19 123.06H936.31V137.94H951.19V123.06ZM968.21 123.06H953.33V137.94H968.21V123.06ZM951.19 140.64H936.31V155.52H951.19V140.64ZM968.21 140.64H953.33V155.52H968.21V140.64ZM1036.29 140.64H1021.41V155.52H1036.29V140.64ZM1053.31 140.64H1038.43V155.52H1053.31V140.64ZM951.18 158.22H936.3L951.18 173.1V158.22ZM968.2 158.22H953.32V173.1H968.2V158.22ZM985.22 158.22H970.34V173.1H985.22V158.22ZM1002.24 158.22H987.36V173.1H1002.24V158.22ZM1019.26 158.22H1004.38V173.1H1019.26V158.22ZM1036.28 158.22H1021.4V173.1H1036.28V158.22ZM1053.3 158.22H1038.42V173.1H1053.3V158.22Z" fill="#D9D9D9"/>
<path d="M820.36 14.91H805.48V0.0300293H820.36V14.91ZM837.38 0.0300293H822.5V14.91H837.38V0.0300293ZM905.46 0.0300293H890.58V14.91H905.46V0.0300293ZM922.48 0.0300293H907.6V14.91H922.48V0.0300293ZM820.35 17.61H805.47V32.49H820.35V17.61ZM837.37 17.61H822.49V32.49H837.37V17.61ZM905.45 17.61H890.57V32.49H905.45V17.61ZM922.47 17.61H907.59V32.49H922.47V17.61ZM820.34 35.19H805.46V50.07H820.34V35.19ZM837.36 35.19H822.48V50.07H837.36V35.19ZM854.38 35.19H839.5V50.07H854.38V35.19ZM888.42 35.19H873.54V50.07H888.42V35.19ZM905.44 35.19H890.56V50.07H905.44V35.19ZM922.46 35.19H907.58V50.07H922.46V35.19ZM820.33 52.77H805.45V67.65H820.33V52.77ZM837.35 52.77H822.47V67.65H837.35V52.77ZM854.37 52.77H839.49V67.65H854.37V52.77ZM871.39 52.77H856.51V67.65H871.39V52.77ZM888.41 52.77H873.53V67.65H888.41V52.77ZM905.43 52.77H890.55V67.65H905.43V52.77ZM922.45 52.77H907.57V67.65H922.45V52.77ZM820.32 70.35H805.44V85.23H820.32V70.35ZM837.34 70.35H822.46V85.23H837.34V70.35ZM871.38 70.35H856.5V85.23H871.38V70.35ZM905.42 70.35H890.54V85.23H905.42V70.35ZM922.44 70.35H907.56V85.23H922.44V70.35ZM820.31 87.93H805.43V102.81H820.31V87.93ZM837.33 87.93H822.45V102.81H837.33V87.93ZM905.41 87.93H890.53V102.81H905.41V87.93ZM922.43 87.93H907.55V102.81H922.43V87.93ZM820.3 105.51H805.42V120.39H820.3V105.51ZM837.32 105.51H822.44V120.39H837.32V105.51ZM905.4 105.51H890.52V120.39H905.4V105.51ZM922.42 105.51H907.54V120.39H922.42V105.51ZM820.29 123.09H805.41V137.97H820.29V123.09ZM837.31 123.09H822.43V137.97H837.31V123.09ZM905.39 123.09H890.51V137.97H905.39V123.09ZM922.41 123.09H907.53V137.97H922.41V123.09ZM820.28 140.67H805.4V155.55H820.28V140.67ZM837.3 140.67H822.42V155.55H837.3V140.67ZM905.38 140.67H890.5V155.55H905.38V140.67ZM922.4 140.67H907.52V155.55H922.4V140.67ZM820.27 158.25H805.39V173.13H820.27V158.25ZM837.29 158.25H822.41V173.13H837.29V158.25ZM905.37 158.25H890.49V173.13H905.37V158.25ZM922.39 158.25H907.51V173.13H922.39V158.25Z" fill="#D9D9D9"/>
</svg>
