<svg width="772" height="237" viewBox="0 0 772 237" fill="none" xmlns="http://www.w3.org/2000/svg">
<g filter="url(#filter0_f_3_391)">
<path d="M700.568 24C708.114 24.0001 714.23 30.1169 714.23 37.6621V118.86C714.231 132.114 724.975 142.858 738.229 142.858C745.774 142.858 751.891 148.975 751.891 156.521C751.891 164.066 745.774 170.183 738.229 170.183C717.191 170.183 699.11 157.524 691.186 139.408V157.204C691.185 164.749 685.068 170.866 677.523 170.866C669.979 170.866 663.863 164.749 663.862 157.204V118.886C663.862 105.632 653.117 94.8879 639.863 94.8877C627.432 94.8878 617.208 104.34 615.987 116.449C616.025 117.257 616.045 118.069 616.045 118.886V132.271C616.045 139.816 609.928 145.933 602.383 145.933C602.353 145.933 602.323 145.931 602.293 145.931C602.263 145.931 602.233 145.933 602.203 145.933C594.658 145.933 588.541 139.816 588.541 132.271V118.886C588.541 118.069 588.56 117.257 588.598 116.449C587.377 104.34 577.154 94.8878 564.723 94.8877C551.469 94.8878 540.724 105.632 540.724 118.886V157.204C540.723 164.749 534.607 170.866 527.062 170.866C519.518 170.866 513.401 164.749 513.4 157.204V139.035C505.568 157.363 487.377 170.208 466.186 170.208C444.83 170.208 426.523 157.164 418.792 138.609V157.204C418.792 164.749 412.675 170.866 405.13 170.866C397.585 170.866 391.469 164.749 391.469 157.204V118.886C391.469 105.632 380.724 94.8877 367.47 94.8877C354.216 94.8879 343.472 105.632 343.472 118.886V157.204C343.471 164.749 337.355 170.866 329.81 170.866C322.265 170.866 316.148 164.749 316.147 157.204V128.471C313.669 130.987 310.224 132.548 306.414 132.548H268.754C261.209 132.548 255.092 126.431 255.092 118.886C255.092 111.341 261.209 105.224 268.754 105.224H288.485C284.153 98.9779 276.931 94.8877 268.754 94.8877C255.5 94.8878 244.756 105.632 244.756 118.886C244.756 131.932 255.167 142.548 268.135 142.877L268.754 142.885L269.106 142.889C276.489 143.076 282.416 149.119 282.416 156.546C282.416 164.091 276.299 170.208 268.754 170.208C247.399 170.208 229.091 157.164 221.36 138.61V156.771C221.36 164.316 215.243 170.433 207.698 170.433C200.153 170.432 194.037 164.316 194.037 156.771V118.608C194.037 105.355 183.292 94.6105 170.038 94.6104C156.991 94.6105 146.376 105.022 146.048 117.989L146.04 118.608V156.771C146.04 164.316 139.923 170.433 132.378 170.433C124.833 170.433 118.716 164.316 118.716 156.771V138.61C110.985 157.164 92.6772 170.208 71.3223 170.208C63.7773 170.208 57.6604 164.091 57.6602 156.546C57.6604 149.001 63.7772 142.885 71.3223 142.885C84.5761 142.885 95.321 132.139 95.3213 118.886C95.3212 105.632 84.5762 94.8877 71.3223 94.8877C58.0684 94.8878 47.3243 105.632 47.3242 118.886V199.21C47.3237 206.755 41.2071 212.871 33.6621 212.871C26.1172 212.871 20.0005 206.755 20 199.21V118.886C20.0001 90.5414 42.9779 67.5636 71.3223 67.5635C92.6768 67.5635 110.985 80.6056 118.716 99.1592V37.6621C118.716 30.1169 124.833 24 132.378 24C139.923 24.0001 146.04 30.1169 146.04 37.6621V73.2314C153.201 69.4363 161.369 67.2862 170.038 67.2861C193.54 67.2862 213.352 83.0841 219.436 104.64C225.61 83.2258 245.353 67.5636 268.754 67.5635C292.205 67.5635 311.981 83.2919 318.111 104.775C324.241 83.2919 344.019 67.5636 367.47 67.5635C390.921 67.5635 410.697 83.2919 416.827 104.775C422.957 83.2919 442.735 67.5637 466.186 67.5635C489.524 67.5635 509.223 83.1415 515.454 104.467C521.685 83.1415 541.384 67.5635 564.723 67.5635C579.559 67.5635 592.922 73.8608 602.292 83.9258C611.662 73.8603 625.027 67.5635 639.863 67.5635C660.901 67.5636 678.982 80.2214 686.906 98.3369V37.6621C686.906 30.1169 693.023 24 700.568 24ZM466.186 94.8877C452.932 94.888 442.188 105.632 442.188 118.886C442.188 132.139 452.932 142.884 466.186 142.885C479.439 142.885 490.184 132.139 490.185 118.886C490.184 105.632 479.439 94.8877 466.186 94.8877Z" fill="url(#paint0_linear_3_391)"/>
</g>
<path d="M700.568 24C708.114 24.0001 714.23 30.1169 714.23 37.6621V118.86C714.231 132.114 724.975 142.858 738.229 142.858C745.774 142.858 751.891 148.975 751.891 156.521C751.891 164.066 745.774 170.183 738.229 170.183C717.191 170.183 699.11 157.524 691.186 139.408V157.204C691.185 164.749 685.068 170.866 677.523 170.866C669.979 170.866 663.863 164.749 663.862 157.204V118.886C663.862 105.632 653.117 94.8879 639.863 94.8877C627.432 94.8878 617.208 104.34 615.987 116.449C616.025 117.257 616.045 118.069 616.045 118.886V132.271C616.045 139.816 609.928 145.933 602.383 145.933C602.353 145.933 602.323 145.931 602.293 145.931C602.263 145.931 602.233 145.933 602.203 145.933C594.658 145.933 588.541 139.816 588.541 132.271V118.886C588.541 118.069 588.56 117.257 588.598 116.449C587.377 104.34 577.154 94.8878 564.723 94.8877C551.469 94.8878 540.724 105.632 540.724 118.886V157.204C540.723 164.749 534.607 170.866 527.062 170.866C519.518 170.866 513.401 164.749 513.4 157.204V139.035C505.568 157.363 487.377 170.208 466.186 170.208C444.83 170.208 426.523 157.164 418.792 138.609V157.204C418.792 164.749 412.675 170.866 405.13 170.866C397.585 170.866 391.469 164.749 391.469 157.204V118.886C391.469 105.632 380.724 94.8877 367.47 94.8877C354.216 94.8879 343.472 105.632 343.472 118.886V157.204C343.471 164.749 337.355 170.866 329.81 170.866C322.265 170.866 316.148 164.749 316.147 157.204V128.471C313.669 130.987 310.224 132.548 306.414 132.548H268.754C261.209 132.548 255.092 126.431 255.092 118.886C255.092 111.341 261.209 105.224 268.754 105.224H288.485C284.153 98.9779 276.931 94.8877 268.754 94.8877C255.5 94.8878 244.756 105.632 244.756 118.886C244.756 131.932 255.167 142.548 268.135 142.877L268.754 142.885L269.106 142.889C276.489 143.076 282.416 149.119 282.416 156.546C282.416 164.091 276.299 170.208 268.754 170.208C247.399 170.208 229.091 157.164 221.36 138.61V156.771C221.36 164.316 215.243 170.433 207.698 170.433C200.153 170.432 194.037 164.316 194.037 156.771V118.608C194.037 105.355 183.292 94.6105 170.038 94.6104C156.991 94.6105 146.376 105.022 146.048 117.989L146.04 118.608V156.771C146.04 164.316 139.923 170.433 132.378 170.433C124.833 170.433 118.716 164.316 118.716 156.771V138.61C110.985 157.164 92.6772 170.208 71.3223 170.208C63.7773 170.208 57.6604 164.091 57.6602 156.546C57.6604 149.001 63.7772 142.885 71.3223 142.885C84.5761 142.885 95.321 132.139 95.3213 118.886C95.3212 105.632 84.5762 94.8877 71.3223 94.8877C58.0684 94.8878 47.3243 105.632 47.3242 118.886V199.21C47.3237 206.755 41.2071 212.871 33.6621 212.871C26.1172 212.871 20.0005 206.755 20 199.21V118.886C20.0001 90.5414 42.9779 67.5636 71.3223 67.5635C92.6768 67.5635 110.985 80.6056 118.716 99.1592V37.6621C118.716 30.1169 124.833 24 132.378 24C139.923 24.0001 146.04 30.1169 146.04 37.6621V73.2314C153.201 69.4363 161.369 67.2862 170.038 67.2861C193.54 67.2862 213.352 83.0841 219.436 104.64C225.61 83.2258 245.353 67.5636 268.754 67.5635C292.205 67.5635 311.981 83.2919 318.111 104.775C324.241 83.2919 344.019 67.5636 367.47 67.5635C390.921 67.5635 410.697 83.2919 416.827 104.775C422.957 83.2919 442.735 67.5637 466.186 67.5635C489.524 67.5635 509.223 83.1415 515.454 104.467C521.685 83.1415 541.384 67.5635 564.723 67.5635C579.559 67.5635 592.922 73.8608 602.292 83.9258C611.662 73.8603 625.027 67.5635 639.863 67.5635C660.901 67.5636 678.982 80.2214 686.906 98.3369V37.6621C686.906 30.1169 693.023 24 700.568 24ZM466.186 94.8877C452.932 94.888 442.188 105.632 442.188 118.886C442.188 132.139 452.932 142.884 466.186 142.885C479.439 142.885 490.184 132.139 490.185 118.886C490.184 105.632 479.439 94.8877 466.186 94.8877Z" fill="#232323"/>
<defs>
<filter id="filter0_f_3_391" x="-4" y="0" width="779.891" height="236.871" filterUnits="userSpaceOnUse" color-interpolation-filters="sRGB">
<feFlood flood-opacity="0" result="BackgroundImageFix"/>
<feBlend mode="normal" in="SourceGraphic" in2="BackgroundImageFix" result="shape"/>
<feGaussianBlur stdDeviation="12" result="effect1_foregroundBlur_3_391"/>
</filter>
<linearGradient id="paint0_linear_3_391" x1="20" y1="118.436" x2="751.891" y2="118.436" gradientUnits="userSpaceOnUse">
<stop stop-color="#0076A6"/>
<stop offset="0.25" stop-color="#2A9D8F"/>
<stop offset="0.5" stop-color="#E9C46A"/>
<stop offset="0.75" stop-color="#F4A261"/>
<stop offset="1" stop-color="#E76F51"/>
</linearGradient>
</defs>
</svg>
